#!OML:ASF Y:\EmotionMaleHayes\Project 1\Capture day 1\Session 1\Male1.ASF
:FULLY-SPECIFIED
:DEGREES
158
root -18.3327 14.9531 1.50742 12.263 79.6718 -7.27241
lowerback 16.8315 3.60411 -5.26645
upperback 7.23741 4.22329 -5.07138
thorax -1.62572 2.27162 -3.15088
lowerneck -30.278 2.88987 3.68809
upperneck 15.4908 2.44868 -0.108798
head 9.83767 1.36655 -0.214005
rclavicle 3.18055e-015 -7.95139e-016
rhumerus -14.7765 34.881 -87.3487
rradius 90.3905
rwrist -19.9964
rhand -28.6299 -33.0559
rfingers 7.12502
rthumb -1.99426 -63.0264
lclavicle 3.18055e-015 -7.95139e-016
lhumerus -64.5418 -31.7066 91.7039
lradius 64.3246
lwrist 37.0465
lhand -36.4966 -16.105
lfingers 7.12502
lthumb -9.58895 13.6568
rfemur 5.68108 4.67255 16.2367
rtibia 41.258
rfoot -5.28719 -12.9053
rtoes 10.3608
lfemur -47.1313 17.4874 -25.3845
ltibia 70.183
lfoot -29.2209 4.84224
ltoes -14.3907
159
root -18.0733 14.9882 1.54578 -0.299666 80.7577 -19.7751
lowerback 18.5471 3.40077 -4.00488
upperback 6.83156 3.98388 -4.25488
thorax -2.94964 2.15015 -3.08503
lowerneck -30.0925 2.71775 3.30041
upperneck 15.4917 2.31762 0.177302
head 9.79756 1.31807 -0.0740334
rclavicle 1.59028e-015 9.54166e-015
rhumerus -19.1483 34.7482 -89.3293
rradius 89.855
rwrist -20.8024
rhand -27.6934 -33.2279
rfingers 7.12502
rthumb -1.08976 -63.2048
lclavicle 1.59028e-015 9.54166e-015
lhumerus -61.6257 -31.5901 90.5818
lradius 63.8555
lwrist 34.8994
lhand -36.6389 -16.5649
lfingers 7.12502
lthumb -9.72628 13.1905
rfemur 2.91454 5.40843 19.6279
rtibia 47.039
rfoot -1.55277 -11.5778
rtoes 19.131
lfemur -46.0086 17.0061 -22.3315
ltibia 70.494
lfoot -28.9561 4.31297
ltoes -13.4684
160
root -17.7848 15.004 1.5156 6.25044 81.4179 -12.9417
lowerback 19.3311 3.23345 -5.01294
upperback 6.8825 3.54878 -4.51902
thorax -3.34177 1.94374 -2.76303
lowerneck -29.707 2.59235 3.06502
upperneck 15.0117 2.26504 0.174566
head 9.55917 1.27672 -0.0535944
rclavicle 3.26007e-014 -5.80451e-014
rhumerus -22.8883 34.435 -91.1857
rradius 88.7334
rwrist -21.4518
rhand -26.5109 -33.0561
rfingers 7.12502
rthumb 0.0522955 -63.0359
lclavicle 3.26007e-014 -5.80451e-014
lhumerus -58.0218 -31.1871 89.0211
lradius 63.602
lwrist 32.8823
lhand -36.4871 -16.8777
lfingers 7.12502
lthumb -9.57978 12.8845
rfemur 0.287348 5.26114 18.2481
rtibia 52.4109
rfoot 1.2197 -7.16103
rtoes 22.2537
lfemur -44.0373 15.6881 -23.359
ltibia 69.6269
lfoot -28.8421 3.77158
ltoes -13.3227
161
root -17.4939 15.0165 1.51229 10.9309 82.5682 -8.0639
lowerback 19.8716 2.85191 -5.65538
upperback 7.06289 2.93231 -4.56707
thorax -3.45232 1.65002 -2.34309
lowerneck -29.4457 2.51912 2.90393
upperneck 14.5241 2.27481 0.0427884
head 9.34263 1.25349 -0.0790161
rclavicle -1.98785e-014 -1.35174e-014
rhumerus -26.4469 33.8082 -92.9202
rradius 87.2339
rwrist -21.9136
rhand -24.9574 -33.0252
rfingers 7.12502
rthumb 1.55275 -62.9993
lclavicle -1.98785e-014 -1.35174e-014
lhumerus -54.1151 -30.5412 87.3591
lradius 63.4364
lwrist 30.9224
lhand -36.2615 -17.3511
lfingers 7.12502
lthumb -9.36211 12.421
rfemur -2.30871 4.54788 17.5541
rtibia 57.0234
rfoot 2.12099 -2.26123
rtoes 15.3834
lfemur -42.2475 14.0011 -23.8837
ltibia 69.0224
lfoot -28.9593 3.44147
ltoes -14.4192
162
root -17.205 15.0246 1.49926 19.5546 83.4222 0.900577
lowerback 20.5551 2.55113 -6.49833
upperback 7.22799 2.36396 -4.69397
thorax -3.63816 1.38393 -1.90742
lowerneck -28.9882 2.38937 2.5718
upperneck 13.9378 2.24342 0.0861265
head 9.05713 1.22385 -0.0242703
rclavicle 2.8625e-014 -1.19271e-014
rhumerus -29.8736 32.8415 -94.55
rradius 85.3124
rwrist -21.9024
rhand -24.1747 -33.3608
rfingers 7.12502
rthumb 2.30861 -63.3281
lclavicle 2.8625e-014 -1.19271e-014
lhumerus -50.332 -29.9564 85.9983
lradius 63.3781
lwrist 29.0409
lhand -36.4046 -17.7601
lfingers 7.12502
lthumb -9.50016 12.0057
rfemur -4.8963 3.81997 16.5396
rtibia 61.6192
rfoot 1.71749 0.840657
rtoes 3.32897
lfemur -40.1502 12.4974 -24.7758
ltibia 68.2229
lfoot -29.0496 3.10662
ltoes -14.9249
163
root -16.9181 15.0208 1.49343 31.5705 83.8904 13.217
lowerback 21.1942 2.36084 -7.68399
upperback 7.28442 1.85143 -4.77028
thorax -3.90984 1.1439 -1.23237
lowerneck -28.3648 2.23922 2.05974
upperneck 13.3772 2.22829 0.246961
head 8.75379 1.20653 0.100762
rclavicle 1.51076e-014 1.35174e-014
rhumerus -33.2262 31.5744 -96.0192
rradius 83.0107
rwrist -21.5416
rhand -24.0051 -33.9884
rfingers 7.12502
rthumb 2.47248 -63.9538
lclavicle 1.51076e-014 1.35174e-014
lhumerus -46.7535 -29.4018 85.0184
lradius 63.5224
lwrist 27.4083
lhand -37.042 -17.8916
lfingers 7.12502
lthumb -10.1151 11.8453
rfemur -7.63743 3.16679 15.3535
rtibia 66.5332
rfoot 1.28073 2.41181
rtoes 2.75293
lfemur -38.0118 11.2395 -25.9111
ltibia 67.2509
lfoot -29.1645 2.80772
ltoes -15.4077
164
root -16.628 15.0073 1.48653 45.6759 83.9872 27.5792
lowerback 21.7494 2.17482 -8.85635
upperback 7.2955 1.33494 -4.90747
thorax -4.16233 0.907198 -0.621273
lowerneck -27.9346 2.07878 1.55595
upperneck 13.1498 2.1767 0.425293
head 8.59866 1.17486 0.228531
rclavicle -1.66979e-014 -5.88403e-014
rhumerus -36.4343 29.9501 -97.3018
rradius 80.3241
rwrist -20.9956
rhand -23.6393 -34.6215
rfingers 7.12502
rthumb 2.82572 -64.5825
lclavicle -1.66979e-014 -5.88403e-014
lhumerus -43.1407 -29.0163 84.1918
lradius 63.6412
lwrist 25.8979
lhand -37.9152 -18.8501
lfingers 7.12502
lthumb -10.9575 10.8439
rfemur -10.5968 2.2583 14.0111
rtibia 71.3034
rfoot 1.4245 2.90054
rtoes 8.10988
lfemur -35.8685 10.0461 -27.1905
ltibia 66.1905
lfoot -29.5606 2.37473
ltoes -15.4968
165
root -16.3327 14.9889 1.47655 59.7881 83.6619 41.964
lowerback 22.2152 1.96439 -9.93568
upperback 7.37048 0.816326 -5.14829
thorax -4.27502 0.673645 -0.165321
lowerneck -27.6404 1.9326 1.25155
upperneck 12.9661 2.08101 0.516049
head 8.48398 1.12357 0.289557
rclavicle -1.19271e-014 -5.08889e-014
rhumerus -39.1696 28.0237 -98.3364
rradius 76.9889
rwrist -20.4455
rhand -23.3614 -33.9704
rfingers 7.12502
rthumb 3.09404 -63.9277
lclavicle -1.19271e-014 -5.08889e-014
lhumerus -39.3773 -28.6908 83.2834
lradius 63.8951
lwrist 24.6106
lhand -38.4401 -20.514
lfingers 7.12502
lthumb -11.4637 9.1526
rfemur -13.7999 1.09349 12.6373
rtibia 75.9753
rfoot 1.07728 3.22488
rtoes 10.286
lfemur -33.6015 8.8928 -28.5803
ltibia 65.0036
lfoot -30.1154 1.98827
ltoes -15.2602
166
root -16.0334 14.967 1.46241 71.0936 82.7456 53.5189
lowerback 22.4875 1.79525 -11.295
upperback 7.51224 0.326153 -5.40132
thorax -4.19307 0.448285 0.431972
lowerneck -27.4895 1.8529 0.992402
upperneck 12.7451 2.05906 0.593536
head 8.38003 1.10878 0.350995
rclavicle -2.14687e-014 -5.96354e-014
rhumerus -41.35 26.0688 -98.9252
rradius 73.2765
rwrist -19.8828
rhand -24.018 -34.0356
rfingers 7.12502
rthumb 2.45998 -64.0012
lclavicle -2.14687e-014 -5.96354e-014
lhumerus -35.3633 -27.9252 82.3191
lradius 64.4102
lwrist 23.805
lhand -38.1792 -21.9913
lfingers 7.12502
lthumb -11.2121 7.68906
rfemur -17.2832 0.103613 11.1412
rtibia 81.4587
rfoot 6.66574 25.1282
rtoes 7.44338
lfemur -31.2 7.90564 -30.2465
ltibia 63.5653
lfoot -30.5179 1.78669
ltoes -15.6342
